<?xml version="1.0" standalone="no"?><!DOCTYPE svg PUBLIC "-//W3C//DTD SVG 1.1//EN" "http://www.w3.org/Graphics/SVG/1.1/DTD/svg11.dtd"><svg t="1616985353541" class="icon" viewBox="0 0 1024 1024" version="1.1" xmlns="http://www.w3.org/2000/svg" p-id="4119" xmlns:xlink="http://www.w3.org/1999/xlink" width="200" height="200"><defs><style type="text/css"></style></defs><path d="M688.213333 837.546667H336.213333a149.76 149.76 0 0 1-149.333333-149.333334V336.213333a149.333333 149.333333 0 0 1 149.333333-149.333333h352a149.76 149.76 0 0 1 149.333334 149.333333v352a150.186667 150.186667 0 0 1-149.333334 149.333334zM336.213333 229.546667a106.666667 106.666667 0 0 0-106.666666 106.666666v352a107.093333 107.093333 0 0 0 106.666666 106.666667h352a107.093333 107.093333 0 0 0 106.666667-106.666667V336.213333a107.093333 107.093333 0 0 0-106.666667-106.666666z" p-id="4120" fill="#2bb7b3"></path><path d="M413.44 226.986667a21.333333 21.333333 0 0 1-21.333333-21.333334V85.333333a21.333333 21.333333 0 0 1 21.333333-21.333333 21.76 21.76 0 0 1 21.333333 21.333333v120.32a21.333333 21.333333 0 0 1-21.333333 21.333334zM610.56 228.266667a21.333333 21.333333 0 0 1-21.333333-21.333334V85.333333a21.76 21.76 0 0 1 21.333333-21.333333 21.333333 21.333333 0 0 1 21.333333 21.333333v121.6a21.333333 21.333333 0 0 1-21.333333 21.333334zM413.44 960a21.333333 21.333333 0 0 1-21.333333-21.333333v-122.453334a21.333333 21.333333 0 0 1 21.333333-21.333333 21.333333 21.333333 0 0 1 21.333333 21.333333V938.666667a21.333333 21.333333 0 0 1-21.333333 21.333333zM610.56 961.28a21.76 21.76 0 0 1-21.333333-21.333333v-123.733334a21.333333 21.333333 0 0 1 21.333333-21.333333 21.333333 21.333333 0 0 1 21.333333 21.333333V938.666667a21.333333 21.333333 0 0 1-21.333333 22.613333zM938.666667 436.48h-121.6a21.333333 21.333333 0 0 1 0-42.666667H938.666667a21.333333 21.333333 0 0 1 0 42.666667zM938.666667 633.6h-123.733334a21.333333 21.333333 0 0 1-21.333333-21.333333 21.333333 21.333333 0 0 1 21.333333-21.333334H938.666667a21.76 21.76 0 0 1 21.333333 21.333334 21.333333 21.333333 0 0 1-21.333333 21.333333zM209.066667 436.48H85.333333a21.333333 21.333333 0 0 1 0-42.666667h123.733334a21.333333 21.333333 0 0 1 0 42.666667zM209.066667 633.6H85.333333a21.333333 21.333333 0 0 1-21.333333-21.333333 21.76 21.76 0 0 1 21.333333-21.333334h123.733334a21.333333 21.333333 0 0 1 21.333333 21.333334 21.333333 21.333333 0 0 1-21.333333 21.333333z" p-id="4121" fill="#2bb7b3"></path></svg>